<?xml version="1.0" encoding="UTF-8" standalone="no"?>
<!DOCTYPE svg PUBLIC "-//W3C//DTD SVG 1.1//EN"
 "http://www.w3.org/Graphics/SVG/1.1/DTD/svg11.dtd">
<!-- Generated by graphviz version 2.36.0 (20140111.2315)
 -->
<!-- Title: G Pages: 1 -->
<svg width="481pt" height="552pt"
 viewBox="0.00 0.00 481.00 552.00" xmlns="http://www.w3.org/2000/svg" xmlns:xlink="http://www.w3.org/1999/xlink">
<g id="graph0" class="graph" transform="scale(1 1) rotate(0) translate(4 548)">
<title>G</title>
<polygon fill="white" stroke="none" points="-4,4 -4,-548 477,-548 477,4 -4,4"/>
<!-- n1 -->
<g id="node1" class="node"><title>n1</title>
<g id="a_node1"><a xlink:title="[[C]]:&#45;1_">
<ellipse fill="none" stroke="black" cx="124" cy="-160" rx="124.176" ry="48.1667"/>
<text text-anchor="middle" x="124" y="-178.8" font-family="Times,serif" font-size="14.00">Node1</text>
<text text-anchor="start" x="44" y="-163.8" font-family="Times,serif" font-size="14.00">module = nn.CAddTable</text>
<text text-anchor="start" x="44" y="-148.8" font-family="Times,serif" font-size="14.00">reverseMap = {}</text>
<text text-anchor="middle" x="124" y="-133.8" font-family="Times,serif" font-size="14.00">mapindex = {Node3,Node4}</text>
</a>
</g>
</g>
<!-- n2 -->
<g id="node2" class="node"><title>n2</title>
<g id="a_node2"><a xlink:title="[[C]]:&#45;1_">
<ellipse fill="none" stroke="black" cx="124" cy="-38" rx="77.1743" ry="37.4533"/>
<text text-anchor="middle" x="124" y="-49.3" font-family="Times,serif" font-size="14.00">Node2</text>
<text text-anchor="start" x="77" y="-34.3" font-family="Times,serif" font-size="14.00">input = {}</text>
<text text-anchor="middle" x="124" y="-19.3" font-family="Times,serif" font-size="14.00">reverseMap = {}</text>
</a>
</g>
</g>
<!-- n1&#45;&gt;n2 -->
<g id="edge1" class="edge"><title>n1&#45;&gt;n2</title>
<path fill="none" stroke="black" d="M124,-111.573C124,-103.096 124,-94.269 124,-85.8099"/>
<polygon fill="black" stroke="black" points="127.5,-85.7224 124,-75.7224 120.5,-85.7224 127.5,-85.7224"/>
</g>
<!-- n3 -->
<g id="node3" class="node"><title>n3</title>
<g id="a_node3"><a xlink:title="[[C]]:&#45;1_">
<ellipse fill="none" stroke="black" cx="124" cy="-394" rx="94.0678" ry="37.4533"/>
<text text-anchor="middle" x="124" y="-405.3" font-family="Times,serif" font-size="14.00">Node3</text>
<text text-anchor="start" x="65.5" y="-390.3" font-family="Times,serif" font-size="14.00">module = nn.Identity</text>
<text text-anchor="middle" x="124" y="-375.3" font-family="Times,serif" font-size="14.00">reverseMap = {}</text>
</a>
</g>
</g>
<!-- n3&#45;&gt;n1 -->
<g id="edge2" class="edge"><title>n3&#45;&gt;n1</title>
<path fill="none" stroke="black" d="M63.233,-365.35C45.3798,-354.001 27.9788,-338.988 18,-320 2.28676,-290.1 3.20912,-274.367 18,-244 24.8425,-229.952 35.3405,-217.58 47.118,-206.968"/>
<polygon fill="black" stroke="black" points="49.668,-209.394 55.0167,-200.248 45.1321,-204.062 49.668,-209.394"/>
</g>
<!-- n4 -->
<g id="node4" class="node"><title>n4</title>
<g id="a_node4"><a xlink:title="[[C]]:&#45;1_">
<ellipse fill="none" stroke="black" cx="250" cy="-282" rx="223.169" ry="37.4533"/>
<text text-anchor="middle" x="250" y="-293.3" font-family="Times,serif" font-size="14.00">Node4</text>
<text text-anchor="start" x="100" y="-278.3" font-family="Times,serif" font-size="14.00">module = nn.SpatialConvolution(3 &#45;&gt; 3, 5x5, 1,1, 2,2)</text>
<text text-anchor="middle" x="250" y="-263.3" font-family="Times,serif" font-size="14.00">reverseMap = {}</text>
</a>
</g>
</g>
<!-- n3&#45;&gt;n4 -->
<g id="edge5" class="edge"><title>n3&#45;&gt;n4</title>
<path fill="none" stroke="black" d="M162.146,-359.698C174.498,-348.914 188.368,-336.806 201.374,-325.451"/>
<polygon fill="black" stroke="black" points="203.683,-328.082 208.915,-318.868 199.08,-322.808 203.683,-328.082"/>
</g>
<!-- n4&#45;&gt;n1 -->
<g id="edge3" class="edge"><title>n4&#45;&gt;n1</title>
<path fill="none" stroke="black" d="M212.196,-244.996C201.374,-234.689 189.364,-223.251 177.779,-212.218"/>
<polygon fill="black" stroke="black" points="179.899,-209.404 170.244,-205.042 175.072,-214.473 179.899,-209.404"/>
</g>
<!-- n5 -->
<g id="node5" class="node"><title>n5</title>
<g id="a_node5"><a xlink:title="[[C]]:&#45;1_">
<ellipse fill="none" stroke="black" cx="124" cy="-506" rx="77.1743" ry="37.4533"/>
<text text-anchor="middle" x="124" y="-517.3" font-family="Times,serif" font-size="14.00">Node5</text>
<text text-anchor="start" x="77" y="-502.3" font-family="Times,serif" font-size="14.00">input = {}</text>
<text text-anchor="middle" x="124" y="-487.3" font-family="Times,serif" font-size="14.00">reverseMap = {}</text>
</a>
</g>
</g>
<!-- n5&#45;&gt;n3 -->
<g id="edge4" class="edge"><title>n5&#45;&gt;n3</title>
<path fill="none" stroke="black" d="M124,-468.372C124,-459.927 124,-450.829 124,-442.011"/>
<polygon fill="black" stroke="black" points="127.5,-441.843 124,-431.844 120.5,-441.844 127.5,-441.843"/>
</g>
</g>
</svg>
